<mxfile host="app.diagrams.net" agent="Mozilla/5.0 (Windows NT 10.0; Win64; x64) AppleWebKit/537.36 (KHTML, like Gecko) Chrome/136.0.0.0 Safari/537.36" version="27.1.6">
  <diagram name="PÃ¡gina-1" id="z-KNLd10G20tdXqbq1tN">
    <mxGraphModel dx="2521" dy="2248" grid="1" gridSize="10" guides="1" tooltips="1" connect="1" arrows="1" fold="1" page="1" pageScale="1" pageWidth="827" pageHeight="1169" math="0" shadow="0">
      <root>
        <mxCell id="0" />
        <mxCell id="1" parent="0" />
        <mxCell id="34ROkzonsxelH0Un-lc5-105" value="" style="endArrow=none;html=1;rounded=0;" edge="1" parent="1">
          <mxGeometry width="50" height="50" relative="1" as="geometry">
            <mxPoint x="478.5" y="710" as="sourcePoint" />
            <mxPoint x="581.5" y="620" as="targetPoint" />
          </mxGeometry>
        </mxCell>
        <mxCell id="34ROkzonsxelH0Un-lc5-104" value="" style="endArrow=none;html=1;rounded=0;" edge="1" parent="1">
          <mxGeometry width="50" height="50" relative="1" as="geometry">
            <mxPoint x="660" y="705.5" as="sourcePoint" />
            <mxPoint x="660" y="624.5" as="targetPoint" />
          </mxGeometry>
        </mxCell>
        <mxCell id="34ROkzonsxelH0Un-lc5-103" value="" style="endArrow=none;html=1;rounded=0;" edge="1" parent="1">
          <mxGeometry width="50" height="50" relative="1" as="geometry">
            <mxPoint x="580" y="711" as="sourcePoint" />
            <mxPoint x="580" y="630" as="targetPoint" />
          </mxGeometry>
        </mxCell>
        <mxCell id="34ROkzonsxelH0Un-lc5-102" value="" style="endArrow=none;html=1;rounded=0;" edge="1" parent="1">
          <mxGeometry width="50" height="50" relative="1" as="geometry">
            <mxPoint x="139.5" y="666" as="sourcePoint" />
            <mxPoint x="139.5" y="585" as="targetPoint" />
          </mxGeometry>
        </mxCell>
        <mxCell id="34ROkzonsxelH0Un-lc5-101" value="" style="endArrow=none;html=1;rounded=0;" edge="1" parent="1">
          <mxGeometry width="50" height="50" relative="1" as="geometry">
            <mxPoint x="773" y="710" as="sourcePoint" />
            <mxPoint x="670" y="620" as="targetPoint" />
          </mxGeometry>
        </mxCell>
        <mxCell id="34ROkzonsxelH0Un-lc5-100" value="" style="endArrow=none;html=1;rounded=0;" edge="1" parent="1">
          <mxGeometry width="50" height="50" relative="1" as="geometry">
            <mxPoint x="760" y="670" as="sourcePoint" />
            <mxPoint x="670" y="620" as="targetPoint" />
          </mxGeometry>
        </mxCell>
        <mxCell id="34ROkzonsxelH0Un-lc5-99" value="" style="endArrow=none;html=1;rounded=0;" edge="1" parent="1">
          <mxGeometry width="50" height="50" relative="1" as="geometry">
            <mxPoint x="40" y="670" as="sourcePoint" />
            <mxPoint x="130" y="620" as="targetPoint" />
          </mxGeometry>
        </mxCell>
        <mxCell id="34ROkzonsxelH0Un-lc5-98" value="" style="endArrow=none;html=1;rounded=0;" edge="1" parent="1">
          <mxGeometry width="50" height="50" relative="1" as="geometry">
            <mxPoint x="10" y="624.5" as="sourcePoint" />
            <mxPoint x="120" y="624.5" as="targetPoint" />
          </mxGeometry>
        </mxCell>
        <mxCell id="34ROkzonsxelH0Un-lc5-97" value="" style="endArrow=none;html=1;rounded=0;" edge="1" parent="1">
          <mxGeometry width="50" height="50" relative="1" as="geometry">
            <mxPoint x="60" y="585" as="sourcePoint" />
            <mxPoint x="170" y="585" as="targetPoint" />
          </mxGeometry>
        </mxCell>
        <mxCell id="34ROkzonsxelH0Un-lc5-96" value="" style="endArrow=none;html=1;rounded=0;" edge="1" parent="1">
          <mxGeometry width="50" height="50" relative="1" as="geometry">
            <mxPoint x="650" y="624.5" as="sourcePoint" />
            <mxPoint x="760" y="624.5" as="targetPoint" />
          </mxGeometry>
        </mxCell>
        <mxCell id="34ROkzonsxelH0Un-lc5-95" value="" style="endArrow=none;html=1;rounded=0;" edge="1" parent="1">
          <mxGeometry width="50" height="50" relative="1" as="geometry">
            <mxPoint x="660" y="584" as="sourcePoint" />
            <mxPoint x="770" y="584" as="targetPoint" />
          </mxGeometry>
        </mxCell>
        <mxCell id="34ROkzonsxelH0Un-lc5-75" value="" style="endArrow=none;html=1;rounded=0;" edge="1" parent="1">
          <mxGeometry width="50" height="50" relative="1" as="geometry">
            <mxPoint x="230" y="294.5" as="sourcePoint" />
            <mxPoint x="160" y="294.5" as="targetPoint" />
          </mxGeometry>
        </mxCell>
        <mxCell id="34ROkzonsxelH0Un-lc5-33" value="" style="endArrow=none;html=1;rounded=0;" edge="1" parent="1">
          <mxGeometry width="50" height="50" relative="1" as="geometry">
            <mxPoint x="655" y="290" as="sourcePoint" />
            <mxPoint x="585" y="290" as="targetPoint" />
          </mxGeometry>
        </mxCell>
        <mxCell id="34ROkzonsxelH0Un-lc5-12" value="" style="endArrow=none;html=1;rounded=0;" edge="1" parent="1">
          <mxGeometry width="50" height="50" relative="1" as="geometry">
            <mxPoint x="190" y="590" as="sourcePoint" />
            <mxPoint x="610" y="590" as="targetPoint" />
          </mxGeometry>
        </mxCell>
        <mxCell id="34ROkzonsxelH0Un-lc5-11" value="" style="endArrow=none;html=1;rounded=0;exitX=0.167;exitY=0.333;exitDx=0;exitDy=0;exitPerimeter=0;" edge="1" parent="1" source="34ROkzonsxelH0Un-lc5-9">
          <mxGeometry width="50" height="50" relative="1" as="geometry">
            <mxPoint x="580" y="530" as="sourcePoint" />
            <mxPoint x="580" y="310" as="targetPoint" />
          </mxGeometry>
        </mxCell>
        <mxCell id="34ROkzonsxelH0Un-lc5-10" value="" style="endArrow=none;html=1;rounded=0;exitX=0.917;exitY=0.167;exitDx=0;exitDy=0;exitPerimeter=0;" edge="1" parent="1" source="34ROkzonsxelH0Un-lc5-8">
          <mxGeometry width="50" height="50" relative="1" as="geometry">
            <mxPoint x="230" y="540" as="sourcePoint" />
            <mxPoint x="230" y="320" as="targetPoint" />
          </mxGeometry>
        </mxCell>
        <mxCell id="34ROkzonsxelH0Un-lc5-5" value="" style="endArrow=none;html=1;rounded=0;" edge="1" parent="1">
          <mxGeometry width="50" height="50" relative="1" as="geometry">
            <mxPoint x="520" y="280" as="sourcePoint" />
            <mxPoint x="430" y="170" as="targetPoint" />
          </mxGeometry>
        </mxCell>
        <mxCell id="34ROkzonsxelH0Un-lc5-4" value="" style="endArrow=none;html=1;rounded=0;" edge="1" parent="1">
          <mxGeometry width="50" height="50" relative="1" as="geometry">
            <mxPoint x="280" y="280" as="sourcePoint" />
            <mxPoint x="400" y="170" as="targetPoint" />
          </mxGeometry>
        </mxCell>
        <mxCell id="34ROkzonsxelH0Un-lc5-2" value="" style="endArrow=none;html=1;rounded=0;" edge="1" parent="1">
          <mxGeometry width="50" height="50" relative="1" as="geometry">
            <mxPoint x="413" y="190" as="sourcePoint" />
            <mxPoint x="413" y="100" as="targetPoint" />
          </mxGeometry>
        </mxCell>
        <mxCell id="34ROkzonsxelH0Un-lc5-3" value="" style="triangle;whiteSpace=wrap;html=1;rotation=90;" vertex="1" parent="1">
          <mxGeometry x="384" y="130" width="60" height="80" as="geometry" />
        </mxCell>
        <mxCell id="34ROkzonsxelH0Un-lc5-6" value="ALUMNO" style="rounded=0;whiteSpace=wrap;html=1;" vertex="1" parent="1">
          <mxGeometry x="210" y="270" width="120" height="60" as="geometry" />
        </mxCell>
        <mxCell id="34ROkzonsxelH0Un-lc5-7" value="PROFESOR" style="rounded=0;whiteSpace=wrap;html=1;" vertex="1" parent="1">
          <mxGeometry x="470" y="270" width="120" height="60" as="geometry" />
        </mxCell>
        <mxCell id="34ROkzonsxelH0Un-lc5-8" value="MATRICULA" style="rounded=0;whiteSpace=wrap;html=1;" vertex="1" parent="1">
          <mxGeometry x="120" y="570" width="120" height="60" as="geometry" />
        </mxCell>
        <mxCell id="34ROkzonsxelH0Un-lc5-9" value="CURSO" style="rounded=0;whiteSpace=wrap;html=1;" vertex="1" parent="1">
          <mxGeometry x="560" y="570" width="120" height="60" as="geometry" />
        </mxCell>
        <mxCell id="34ROkzonsxelH0Un-lc5-17" value="" style="endArrow=none;html=1;rounded=0;" edge="1" parent="1" source="34ROkzonsxelH0Un-lc5-57">
          <mxGeometry width="50" height="50" relative="1" as="geometry">
            <mxPoint x="240" y="-20" as="sourcePoint" />
            <mxPoint x="354" y="65" as="targetPoint" />
          </mxGeometry>
        </mxCell>
        <mxCell id="34ROkzonsxelH0Un-lc5-30" value="Estado_Alumno" style="ellipse;whiteSpace=wrap;html=1;" vertex="1" parent="1">
          <mxGeometry x="80" y="285" width="100" height="30" as="geometry" />
        </mxCell>
        <mxCell id="34ROkzonsxelH0Un-lc5-46" value="Estado_Profesor" style="ellipse;whiteSpace=wrap;html=1;flipH=1;flipV=0;direction=west;" vertex="1" parent="1">
          <mxGeometry x="625" y="280" width="100" height="30" as="geometry" />
        </mxCell>
        <mxCell id="34ROkzonsxelH0Un-lc5-49" value="" style="rounded=0;whiteSpace=wrap;html=1;" vertex="1" parent="1">
          <mxGeometry x="354" y="50" width="120" height="60" as="geometry" />
        </mxCell>
        <mxCell id="34ROkzonsxelH0Un-lc5-1" value="&lt;font style=&quot;vertical-align: inherit;&quot;&gt;&lt;font style=&quot;vertical-align: inherit;&quot;&gt;PERSONA&lt;/font&gt;&lt;/font&gt;" style="text;html=1;align=center;verticalAlign=middle;whiteSpace=wrap;rounded=0;" vertex="1" parent="1">
          <mxGeometry x="384" y="65" width="60" height="30" as="geometry" />
        </mxCell>
        <mxCell id="34ROkzonsxelH0Un-lc5-50" value="" style="endArrow=none;html=1;rounded=0;" edge="1" parent="1" source="34ROkzonsxelH0Un-lc5-59">
          <mxGeometry width="50" height="50" relative="1" as="geometry">
            <mxPoint x="310" y="-50" as="sourcePoint" />
            <mxPoint x="370" y="50" as="targetPoint" />
          </mxGeometry>
        </mxCell>
        <mxCell id="34ROkzonsxelH0Un-lc5-51" value="" style="endArrow=none;html=1;rounded=0;" edge="1" parent="1" source="34ROkzonsxelH0Un-lc5-61">
          <mxGeometry width="50" height="50" relative="1" as="geometry">
            <mxPoint x="374" y="-70" as="sourcePoint" />
            <mxPoint x="384" y="50" as="targetPoint" />
          </mxGeometry>
        </mxCell>
        <mxCell id="34ROkzonsxelH0Un-lc5-52" value="" style="endArrow=none;html=1;rounded=0;" edge="1" parent="1">
          <mxGeometry width="50" height="50" relative="1" as="geometry">
            <mxPoint x="414" y="-80" as="sourcePoint" />
            <mxPoint x="414" y="50" as="targetPoint" />
          </mxGeometry>
        </mxCell>
        <mxCell id="34ROkzonsxelH0Un-lc5-53" value="" style="endArrow=none;html=1;rounded=0;" edge="1" parent="1" source="34ROkzonsxelH0Un-lc5-64">
          <mxGeometry width="50" height="50" relative="1" as="geometry">
            <mxPoint x="454" y="-70" as="sourcePoint" />
            <mxPoint x="444" y="50" as="targetPoint" />
          </mxGeometry>
        </mxCell>
        <mxCell id="34ROkzonsxelH0Un-lc5-54" value="" style="endArrow=none;html=1;rounded=0;" edge="1" parent="1">
          <mxGeometry width="50" height="50" relative="1" as="geometry">
            <mxPoint x="520" y="-50" as="sourcePoint" />
            <mxPoint x="460" y="50" as="targetPoint" />
          </mxGeometry>
        </mxCell>
        <mxCell id="34ROkzonsxelH0Un-lc5-56" value="" style="endArrow=none;html=1;rounded=0;" edge="1" parent="1">
          <mxGeometry width="50" height="50" relative="1" as="geometry">
            <mxPoint x="587" y="-20" as="sourcePoint" />
            <mxPoint x="473" y="65" as="targetPoint" />
          </mxGeometry>
        </mxCell>
        <mxCell id="34ROkzonsxelH0Un-lc5-58" value="" style="endArrow=none;html=1;rounded=0;" edge="1" parent="1" target="34ROkzonsxelH0Un-lc5-57">
          <mxGeometry width="50" height="50" relative="1" as="geometry">
            <mxPoint x="240" y="-20" as="sourcePoint" />
            <mxPoint x="354" y="65" as="targetPoint" />
          </mxGeometry>
        </mxCell>
        <mxCell id="34ROkzonsxelH0Un-lc5-57" value="" style="ellipse;whiteSpace=wrap;html=1;aspect=fixed;fillColor=#000000;" vertex="1" parent="1">
          <mxGeometry x="230" y="-30" width="20" height="20" as="geometry" />
        </mxCell>
        <mxCell id="34ROkzonsxelH0Un-lc5-60" value="" style="endArrow=none;html=1;rounded=0;" edge="1" parent="1" target="34ROkzonsxelH0Un-lc5-59">
          <mxGeometry width="50" height="50" relative="1" as="geometry">
            <mxPoint x="310" y="-50" as="sourcePoint" />
            <mxPoint x="370" y="50" as="targetPoint" />
          </mxGeometry>
        </mxCell>
        <mxCell id="34ROkzonsxelH0Un-lc5-59" value="" style="ellipse;whiteSpace=wrap;html=1;aspect=fixed;" vertex="1" parent="1">
          <mxGeometry x="300" y="-60" width="20" height="20" as="geometry" />
        </mxCell>
        <mxCell id="34ROkzonsxelH0Un-lc5-62" value="" style="endArrow=none;html=1;rounded=0;" edge="1" parent="1" target="34ROkzonsxelH0Un-lc5-61">
          <mxGeometry width="50" height="50" relative="1" as="geometry">
            <mxPoint x="374" y="-70" as="sourcePoint" />
            <mxPoint x="384" y="50" as="targetPoint" />
          </mxGeometry>
        </mxCell>
        <mxCell id="34ROkzonsxelH0Un-lc5-61" value="" style="ellipse;whiteSpace=wrap;html=1;aspect=fixed;" vertex="1" parent="1">
          <mxGeometry x="364" y="-80" width="20" height="20" as="geometry" />
        </mxCell>
        <mxCell id="34ROkzonsxelH0Un-lc5-63" value="" style="ellipse;whiteSpace=wrap;html=1;aspect=fixed;" vertex="1" parent="1">
          <mxGeometry x="404" y="-90" width="20" height="20" as="geometry" />
        </mxCell>
        <mxCell id="34ROkzonsxelH0Un-lc5-65" value="" style="endArrow=none;html=1;rounded=0;" edge="1" parent="1" target="34ROkzonsxelH0Un-lc5-64">
          <mxGeometry width="50" height="50" relative="1" as="geometry">
            <mxPoint x="454" y="-70" as="sourcePoint" />
            <mxPoint x="444" y="50" as="targetPoint" />
          </mxGeometry>
        </mxCell>
        <mxCell id="34ROkzonsxelH0Un-lc5-64" value="" style="ellipse;whiteSpace=wrap;html=1;aspect=fixed;" vertex="1" parent="1">
          <mxGeometry x="444" y="-80" width="20" height="20" as="geometry" />
        </mxCell>
        <mxCell id="34ROkzonsxelH0Un-lc5-66" value="" style="ellipse;whiteSpace=wrap;html=1;aspect=fixed;" vertex="1" parent="1">
          <mxGeometry x="510" y="-60" width="20" height="20" as="geometry" />
        </mxCell>
        <mxCell id="34ROkzonsxelH0Un-lc5-67" value="" style="ellipse;whiteSpace=wrap;html=1;aspect=fixed;" vertex="1" parent="1">
          <mxGeometry x="580" y="-30" width="20" height="20" as="geometry" />
        </mxCell>
        <mxCell id="34ROkzonsxelH0Un-lc5-68" value="DNI" style="text;html=1;align=center;verticalAlign=middle;whiteSpace=wrap;rounded=0;rotation=-90;" vertex="1" parent="1">
          <mxGeometry x="210" y="-70" width="60" height="30" as="geometry" />
        </mxCell>
        <mxCell id="34ROkzonsxelH0Un-lc5-69" value="Cargo" style="text;html=1;align=center;verticalAlign=middle;whiteSpace=wrap;rounded=0;rotation=-90;" vertex="1" parent="1">
          <mxGeometry x="280" y="-110" width="60" height="30" as="geometry" />
        </mxCell>
        <mxCell id="34ROkzonsxelH0Un-lc5-70" value="Nombre" style="text;html=1;align=center;verticalAlign=middle;whiteSpace=wrap;rounded=0;rotation=-90;" vertex="1" parent="1">
          <mxGeometry x="344" y="-125" width="60" height="30" as="geometry" />
        </mxCell>
        <mxCell id="34ROkzonsxelH0Un-lc5-71" value="Apellido&lt;span style=&quot;color: rgba(0, 0, 0, 0); font-family: monospace; font-size: 0px; text-align: start; text-wrap-mode: nowrap;&quot;&gt;%3CmxGraphModel%3E%3Croot%3E%3CmxCell%20id%3D%220%22%2F%3E%3CmxCell%20id%3D%221%22%20parent%3D%220%22%2F%3E%3CmxCell%20id%3D%222%22%20value%3D%22Cargo%22%20style%3D%22text%3Bhtml%3D1%3Balign%3Dcenter%3BverticalAlign%3Dmiddle%3BwhiteSpace%3Dwrap%3Brounded%3D0%3Brotation%3D-90%3B%22%20vertex%3D%221%22%20parent%3D%221%22%3E%3CmxGeometry%20x%3D%22280%22%20y%3D%22-110%22%20width%3D%2260%22%20height%3D%2230%22%20as%3D%22geometry%22%2F%3E%3C%2FmxCell%3E%3C%2Froot%3E%3C%2FmxGraphModel%3E&lt;/span&gt;" style="text;html=1;align=center;verticalAlign=middle;whiteSpace=wrap;rounded=0;rotation=-90;" vertex="1" parent="1">
          <mxGeometry x="384" y="-140" width="60" height="30" as="geometry" />
        </mxCell>
        <mxCell id="34ROkzonsxelH0Un-lc5-72" value="Telefono" style="text;html=1;align=center;verticalAlign=middle;whiteSpace=wrap;rounded=0;rotation=-90;" vertex="1" parent="1">
          <mxGeometry x="424" y="-125" width="60" height="30" as="geometry" />
        </mxCell>
        <mxCell id="34ROkzonsxelH0Un-lc5-73" value="fecha_alta" style="text;html=1;align=center;verticalAlign=middle;whiteSpace=wrap;rounded=0;rotation=-90;" vertex="1" parent="1">
          <mxGeometry x="485" y="-110" width="70" height="30" as="geometry" />
        </mxCell>
        <mxCell id="34ROkzonsxelH0Un-lc5-74" value="fecha_alta" style="text;html=1;align=center;verticalAlign=middle;whiteSpace=wrap;rounded=0;rotation=-90;" vertex="1" parent="1">
          <mxGeometry x="555" y="-80" width="70" height="30" as="geometry" />
        </mxCell>
        <mxCell id="34ROkzonsxelH0Un-lc5-77" value="" style="verticalLabelPosition=bottom;verticalAlign=top;html=1;shape=mxgraph.basic.arc;startAngle=0.5433872003853077;endAngle=0.9446318428835013;rotation=-90;" vertex="1" parent="1">
          <mxGeometry x="340" y="80" width="140" height="180" as="geometry" />
        </mxCell>
        <mxCell id="34ROkzonsxelH0Un-lc5-78" value="(0,1)" style="text;html=1;align=center;verticalAlign=middle;whiteSpace=wrap;rounded=0;rotation=0;" vertex="1" parent="1">
          <mxGeometry x="270" y="210" width="60" height="30" as="geometry" />
        </mxCell>
        <mxCell id="34ROkzonsxelH0Un-lc5-79" value="(0,1)" style="text;html=1;align=center;verticalAlign=middle;whiteSpace=wrap;rounded=0;rotation=0;" vertex="1" parent="1">
          <mxGeometry x="484" y="210" width="60" height="30" as="geometry" />
        </mxCell>
        <mxCell id="34ROkzonsxelH0Un-lc5-80" value="ID_MAT" style="ellipse;whiteSpace=wrap;html=1;" vertex="1" parent="1">
          <mxGeometry x="-20" y="570" width="100" height="30" as="geometry" />
        </mxCell>
        <mxCell id="34ROkzonsxelH0Un-lc5-81" value="ID_Curso" style="ellipse;whiteSpace=wrap;html=1;" vertex="1" parent="1">
          <mxGeometry x="750" y="570" width="100" height="30" as="geometry" />
        </mxCell>
        <mxCell id="34ROkzonsxelH0Un-lc5-82" value="Descripcion" style="ellipse;whiteSpace=wrap;html=1;" vertex="1" parent="1">
          <mxGeometry x="750" y="610" width="100" height="30" as="geometry" />
        </mxCell>
        <mxCell id="34ROkzonsxelH0Un-lc5-83" value="Nombre_Curso" style="ellipse;whiteSpace=wrap;html=1;" vertex="1" parent="1">
          <mxGeometry x="750" y="650" width="100" height="30" as="geometry" />
        </mxCell>
        <mxCell id="34ROkzonsxelH0Un-lc5-84" value="Estado_Curso" style="ellipse;whiteSpace=wrap;html=1;" vertex="1" parent="1">
          <mxGeometry x="750" y="690" width="100" height="30" as="geometry" />
        </mxCell>
        <mxCell id="34ROkzonsxelH0Un-lc5-85" value="fecha_inicio" style="ellipse;whiteSpace=wrap;html=1;" vertex="1" parent="1">
          <mxGeometry x="525" y="690" width="100" height="30" as="geometry" />
        </mxCell>
        <mxCell id="34ROkzonsxelH0Un-lc5-86" value="DNIP" style="ellipse;whiteSpace=wrap;html=1;" vertex="1" parent="1">
          <mxGeometry x="630" y="690" width="100" height="30" as="geometry" />
        </mxCell>
        <mxCell id="34ROkzonsxelH0Un-lc5-87" value="fecha_fin" style="ellipse;whiteSpace=wrap;html=1;" vertex="1" parent="1">
          <mxGeometry x="414" y="690" width="100" height="30" as="geometry" />
        </mxCell>
        <mxCell id="34ROkzonsxelH0Un-lc5-88" value="Estado_Alumno" style="ellipse;whiteSpace=wrap;html=1;" vertex="1" parent="1">
          <mxGeometry x="-20" y="610" width="100" height="30" as="geometry" />
        </mxCell>
        <mxCell id="34ROkzonsxelH0Un-lc5-89" value="Estado_Alumno" style="ellipse;whiteSpace=wrap;html=1;" vertex="1" parent="1">
          <mxGeometry x="-20" y="650" width="100" height="30" as="geometry" />
        </mxCell>
        <mxCell id="34ROkzonsxelH0Un-lc5-90" value="Estado_Alumno" style="ellipse;whiteSpace=wrap;html=1;" vertex="1" parent="1">
          <mxGeometry x="90" y="650" width="100" height="30" as="geometry" />
        </mxCell>
        <mxCell id="34ROkzonsxelH0Un-lc5-91" value="(1,N)" style="text;html=1;align=center;verticalAlign=middle;whiteSpace=wrap;rounded=0;rotation=0;" vertex="1" parent="1">
          <mxGeometry x="250" y="600" width="60" height="30" as="geometry" />
        </mxCell>
        <mxCell id="34ROkzonsxelH0Un-lc5-92" value="(1,1)" style="text;html=1;align=center;verticalAlign=middle;whiteSpace=wrap;rounded=0;rotation=0;" vertex="1" parent="1">
          <mxGeometry x="495" y="600" width="60" height="30" as="geometry" />
        </mxCell>
        <mxCell id="34ROkzonsxelH0Un-lc5-93" value="(1,N)" style="text;html=1;align=center;verticalAlign=middle;whiteSpace=wrap;rounded=0;rotation=0;" vertex="1" parent="1">
          <mxGeometry x="170" y="540" width="60" height="30" as="geometry" />
        </mxCell>
        <mxCell id="34ROkzonsxelH0Un-lc5-94" value="(1,1)" style="text;html=1;align=center;verticalAlign=middle;whiteSpace=wrap;rounded=0;rotation=0;" vertex="1" parent="1">
          <mxGeometry x="230" y="330" width="60" height="30" as="geometry" />
        </mxCell>
        <mxCell id="34ROkzonsxelH0Un-lc5-106" value="(1,N)" style="text;html=1;align=center;verticalAlign=middle;whiteSpace=wrap;rounded=0;rotation=0;" vertex="1" parent="1">
          <mxGeometry x="580" y="540" width="60" height="30" as="geometry" />
        </mxCell>
        <mxCell id="34ROkzonsxelH0Un-lc5-108" value="(1,1)" style="text;html=1;align=center;verticalAlign=middle;whiteSpace=wrap;rounded=0;rotation=0;" vertex="1" parent="1">
          <mxGeometry x="520" y="330" width="60" height="30" as="geometry" />
        </mxCell>
        <mxCell id="34ROkzonsxelH0Un-lc5-109" value="&lt;h1 style=&quot;margin-top: 0px;&quot;&gt;Entidad Relacional&lt;/h1&gt;&lt;div&gt;Profesor(DNI (PK), Cargo, Nombre, Apellido, Telefono, fecha_alta, fecha_baja, Estado_Profesor)&lt;/div&gt;&lt;div&gt;&lt;br&gt;&lt;/div&gt;&lt;div&gt;&lt;br&gt;&lt;/div&gt;&lt;div&gt;&lt;br&gt;&lt;/div&gt;&lt;div&gt;Curso(ID_Curso (PK), Descripcion, Nombre_Curso, Estado_Curso, DNIP(FK), fecha_inicio, fecha_fin)&lt;/div&gt;&lt;div&gt;&lt;br&gt;&lt;/div&gt;&lt;div&gt;&lt;br&gt;&lt;/div&gt;&lt;div&gt;&lt;br&gt;&lt;/div&gt;&lt;div&gt;&lt;br&gt;&lt;/div&gt;&lt;div&gt;&lt;div&gt;Alumno(DNI (PK), Cargo, Nombre, Apellido, Telefono, fecha_alta, fecha_baja, Estado_Alumno)&lt;/div&gt;&lt;div&gt;&lt;br&gt;&lt;/div&gt;&lt;div&gt;&lt;br&gt;&lt;/div&gt;&lt;div&gt;&lt;br&gt;&lt;/div&gt;&lt;div&gt;&lt;br&gt;&lt;/div&gt;&lt;/div&gt;&lt;div&gt;Matricula(ID_MAT(PK), DNIA(FK), IDCURSO(FK), Estado_Matricula)&lt;/div&gt;" style="text;html=1;whiteSpace=wrap;overflow=hidden;rounded=0;" vertex="1" parent="1">
          <mxGeometry x="900" y="270" width="590" height="320" as="geometry" />
        </mxCell>
        <mxCell id="34ROkzonsxelH0Un-lc5-110" value="" style="endArrow=classic;html=1;rounded=0;" edge="1" parent="1">
          <mxGeometry width="50" height="50" relative="1" as="geometry">
            <mxPoint x="1036" y="520" as="sourcePoint" />
            <mxPoint x="986" y="470" as="targetPoint" />
          </mxGeometry>
        </mxCell>
        <mxCell id="34ROkzonsxelH0Un-lc5-114" value="" style="edgeStyle=segmentEdgeStyle;endArrow=classic;html=1;curved=0;rounded=0;endSize=8;startSize=8;" edge="1" parent="1">
          <mxGeometry width="50" height="50" relative="1" as="geometry">
            <mxPoint x="1120" y="540" as="sourcePoint" />
            <mxPoint x="900" y="390" as="targetPoint" />
            <Array as="points">
              <mxPoint x="1130" y="540" />
              <mxPoint x="1120" y="540" />
              <mxPoint x="1120" y="550" />
              <mxPoint x="850" y="550" />
              <mxPoint x="850" y="390" />
            </Array>
          </mxGeometry>
        </mxCell>
        <mxCell id="34ROkzonsxelH0Un-lc5-115" value="" style="line;strokeWidth=2;html=1;" vertex="1" parent="1">
          <mxGeometry x="1090" y="535" width="60" height="10" as="geometry" />
        </mxCell>
        <mxCell id="34ROkzonsxelH0Un-lc5-117" value="" style="line;strokeWidth=2;html=1;" vertex="1" parent="1">
          <mxGeometry x="1021" y="515" width="60" height="10" as="geometry" />
        </mxCell>
        <mxCell id="34ROkzonsxelH0Un-lc5-118" value="" style="endArrow=classic;html=1;rounded=0;" edge="1" parent="1">
          <mxGeometry width="50" height="50" relative="1" as="geometry">
            <mxPoint x="1270" y="380" as="sourcePoint" />
            <mxPoint x="970" y="340" as="targetPoint" />
          </mxGeometry>
        </mxCell>
        <mxCell id="34ROkzonsxelH0Un-lc5-119" value="" style="line;strokeWidth=2;html=1;" vertex="1" parent="1">
          <mxGeometry x="1261" y="374" width="50" height="10" as="geometry" />
        </mxCell>
      </root>
    </mxGraphModel>
  </diagram>
</mxfile>
